<mxfile host="app.diagrams.net" modified="2023-06-27T22:15:53.069Z" agent="Mozilla/5.0 (X11; Linux x86_64) AppleWebKit/537.36 (KHTML, like Gecko) Chrome/109.0.0.0 Safari/537.36" etag="07O96_5japiW8DxDsUue" version="21.5.1" type="device">
  <diagram id="rErQYU27RgUN29eImOXm" name="Page-1">
    <mxGraphModel dx="2599" dy="1413" grid="1" gridSize="10" guides="1" tooltips="1" connect="1" arrows="1" fold="1" page="0" pageScale="1" pageWidth="850" pageHeight="1100" background="none" math="0" shadow="0">
      <root>
        <mxCell id="0" />
        <mxCell id="1" parent="0" />
        <mxCell id="node4" value="&lt;p style=&quot;margin:0px;margin-top:4px;text-align:center;&quot;&gt;&lt;b&gt;Aberturas&lt;/b&gt;&lt;/p&gt;&lt;hr size=&quot;1&quot;/&gt;&lt;p style=&quot;margin:0 0 0 4px;line-height:1.6;&quot;&gt;+ getEstado(): int&lt;br/&gt;+ getDescricao(): String&lt;br/&gt;+ setDescricao(String): void&lt;br/&gt;+ setEstado(int): void&lt;/p&gt;" style="verticalAlign=top;align=left;overflow=fill;fontSize=14;fontFamily=Helvetica;html=1;rounded=0;shadow=0;comic=0;labelBackgroundColor=none;strokeWidth=1;" parent="1" vertex="1">
          <mxGeometry x="10" y="-160" width="206" height="133" as="geometry" />
        </mxCell>
        <mxCell id="LVRWjRZNh_xkCj5kbEaF-4" value="Use" style="edgeStyle=orthogonalEdgeStyle;rounded=0;orthogonalLoop=1;jettySize=auto;html=1;entryX=0.5;entryY=1;entryDx=0;entryDy=0;" parent="1" source="node2" target="node0" edge="1">
          <mxGeometry relative="1" as="geometry" />
        </mxCell>
        <mxCell id="LVRWjRZNh_xkCj5kbEaF-5" value="Use" style="edgeStyle=orthogonalEdgeStyle;rounded=0;orthogonalLoop=1;jettySize=auto;html=1;exitX=1;exitY=0;exitDx=0;exitDy=0;entryX=0.5;entryY=1;entryDx=0;entryDy=0;" parent="1" source="node2" target="node6" edge="1">
          <mxGeometry relative="1" as="geometry">
            <Array as="points">
              <mxPoint x="30" y="220" />
              <mxPoint x="30" y="132" />
              <mxPoint x="261" y="132" />
            </Array>
          </mxGeometry>
        </mxCell>
        <mxCell id="node2" value="&lt;p style=&quot;margin:0px;margin-top:4px;text-align:center;&quot;&gt;&lt;b&gt;Casa&lt;/b&gt;&lt;/p&gt;&lt;hr size=&quot;1&quot;/&gt;&lt;p style=&quot;margin:0 0 0 4px;line-height:1.6;&quot;&gt;+ setListaDePortas(ArrayList&amp;lt;Aberturas&amp;gt;): void&lt;br/&gt;+ setDescricao(String): void&lt;br/&gt;+ geraInfosCasa(): String&lt;br/&gt;+ moverAbertura(Aberturas, int): void&lt;br/&gt;+ retornaAbertura(int, String): Aberturas&lt;br/&gt;+ exibeMsgAbertura(): void&lt;br/&gt;+ setListaDeJanelas(ArrayList&amp;lt;Aberturas&amp;gt;): void&lt;br/&gt;+ getDescricao(): String&lt;br/&gt;+ getListaDeJanelas(): ArrayList&amp;lt;Aberturas&amp;gt;&lt;br/&gt;+ setCor(String): void&lt;br/&gt;+ constroiCasa(String, String, ArrayList&amp;lt;Aberturas&amp;gt;, ArrayList&amp;lt;Aberturas&amp;gt;): void&lt;br/&gt;+ getCor(): String&lt;br/&gt;+ getListaDePortas(): ArrayList&amp;lt;Aberturas&amp;gt;&lt;/p&gt;" style="verticalAlign=top;align=left;overflow=fill;fontSize=14;fontFamily=Helvetica;html=1;rounded=0;shadow=0;comic=0;labelBackgroundColor=none;strokeWidth=1;" parent="1" vertex="1">
          <mxGeometry x="-470" y="220" width="530" height="358" as="geometry" />
        </mxCell>
        <mxCell id="LVRWjRZNh_xkCj5kbEaF-7" value="Use" style="edgeStyle=orthogonalEdgeStyle;rounded=0;orthogonalLoop=1;jettySize=auto;html=1;exitX=0;exitY=0.5;exitDx=0;exitDy=0;" parent="1" source="node3" target="node2" edge="1">
          <mxGeometry relative="1" as="geometry" />
        </mxCell>
        <mxCell id="LVRWjRZNh_xkCj5kbEaF-8" value="Use" style="edgeStyle=orthogonalEdgeStyle;rounded=0;orthogonalLoop=1;jettySize=auto;html=1;" parent="1" source="node3" target="node1" edge="1">
          <mxGeometry relative="1" as="geometry" />
        </mxCell>
        <mxCell id="node3" value="&lt;p style=&quot;margin:0px;margin-top:4px;text-align:center;&quot;&gt;&lt;b&gt;Controladora&lt;/b&gt;&lt;/p&gt;&lt;hr size=&quot;1&quot;/&gt;&lt;p style=&quot;margin:0 0 0 4px;line-height:1.6;&quot;&gt;+ exibeMenu(): void&lt;/p&gt;" style="verticalAlign=top;align=left;overflow=fill;fontSize=14;fontFamily=Helvetica;html=1;rounded=0;shadow=0;comic=0;labelBackgroundColor=none;strokeWidth=1;" parent="1" vertex="1">
          <mxGeometry x="300" y="520" width="158" height="58" as="geometry" />
        </mxCell>
        <mxCell id="node1" value="&lt;p style=&quot;margin:0px;margin-top:4px;text-align:center;&quot;&gt;&lt;b&gt;EntradaSaida&lt;/b&gt;&lt;/p&gt;&lt;hr size=&quot;1&quot;/&gt;&lt;p style=&quot;margin:0 0 0 4px;line-height:1.6;&quot;&gt;+ solicitaOpcao(): int&lt;br/&gt;+ solicitaCor(): String&lt;br/&gt;+ solicitaEstado(String): int&lt;br/&gt;+ solicitaTipoAbertura(): String&lt;br/&gt;+ solicitaQtdeAberturas(String): int&lt;br/&gt;+ exibeInfoCasa(String): void&lt;br/&gt;+ exibeMensagemEncerraPrograma(): void&lt;br/&gt;+ solicitaDescricao(String, int): String&lt;br/&gt;+ solicitaAberturaMover(List&amp;lt;Aberturas&amp;gt;): int&lt;/p&gt;" style="verticalAlign=top;align=left;overflow=fill;fontSize=14;fontFamily=Helvetica;html=1;rounded=0;shadow=0;comic=0;labelBackgroundColor=none;strokeWidth=1;" parent="1" vertex="1">
          <mxGeometry x="620" y="330" width="318" height="238" as="geometry" />
        </mxCell>
        <mxCell id="node0" value="&lt;p style=&quot;margin:0px;margin-top:4px;text-align:center;&quot;&gt;&lt;b&gt;Janela&lt;/b&gt;&lt;/p&gt;&lt;hr size=&quot;1&quot;/&gt;" style="verticalAlign=top;align=left;overflow=fill;fontSize=14;fontFamily=Helvetica;html=1;rounded=0;shadow=0;comic=0;labelBackgroundColor=none;strokeWidth=1;" parent="1" vertex="1">
          <mxGeometry x="-90" y="14" width="100" height="30" as="geometry" />
        </mxCell>
        <mxCell id="node6" value="&lt;p style=&quot;margin:0px;margin-top:4px;text-align:center;&quot;&gt;&lt;b&gt;Porta&lt;/b&gt;&lt;/p&gt;&lt;hr size=&quot;1&quot;/&gt;" style="verticalAlign=top;align=left;overflow=fill;fontSize=14;fontFamily=Helvetica;html=1;rounded=0;shadow=0;comic=0;labelBackgroundColor=none;strokeWidth=1;" parent="1" vertex="1">
          <mxGeometry x="216" y="14" width="91" height="30" as="geometry" />
        </mxCell>
        <mxCell id="node5" value="&lt;p style=&quot;margin:0px;margin-top:4px;text-align:center;&quot;&gt;&lt;b&gt;Principal&lt;/b&gt;&lt;/p&gt;&lt;hr size=&quot;1&quot;/&gt;&lt;p style=&quot;margin:0 0 0 4px;line-height:1.6;&quot;&gt;+ main(String[]): void&lt;/p&gt;" style="verticalAlign=top;align=left;overflow=fill;fontSize=14;fontFamily=Helvetica;html=1;rounded=0;shadow=0;comic=0;labelBackgroundColor=none;strokeWidth=1;" parent="1" vertex="1">
          <mxGeometry x="300" y="650" width="164" height="58" as="geometry" />
        </mxCell>
        <mxCell id="edge1" value="Extends" style="html=1;rounded=1;edgeStyle=orthogonalEdgeStyle;dashed=0;startArrow=none;endArrow=block;endSize=12;strokeColor=#000082;exitX=0.500;exitY=0.001;exitDx=0;exitDy=0;entryX=0.500;entryY=1.000;entryDx=0;entryDy=0;" parent="1" source="node0" target="node4" edge="1">
          <mxGeometry width="50" height="50" relative="1" as="geometry">
            <Array as="points">
              <mxPoint x="113" y="4" />
            </Array>
          </mxGeometry>
        </mxCell>
        <mxCell id="edge0" value="Extends" style="html=1;rounded=1;edgeStyle=orthogonalEdgeStyle;dashed=0;startArrow=none;endArrow=block;endSize=12;strokeColor=#000082;exitX=0.500;exitY=0.001;exitDx=0;exitDy=0;entryX=0.500;entryY=1.000;entryDx=0;entryDy=0;" parent="1" source="node6" target="node4" edge="1">
          <mxGeometry width="50" height="50" relative="1" as="geometry">
            <Array as="points">
              <mxPoint x="262" y="4" />
              <mxPoint x="113" y="4" />
            </Array>
          </mxGeometry>
        </mxCell>
        <mxCell id="LVRWjRZNh_xkCj5kbEaF-1" value="Use" style="endArrow=classic;html=1;rounded=0;" parent="1" target="node3" edge="1">
          <mxGeometry width="50" height="50" relative="1" as="geometry">
            <mxPoint x="379" y="650" as="sourcePoint" />
            <mxPoint x="260" y="610" as="targetPoint" />
            <Array as="points">
              <mxPoint x="379" y="610" />
            </Array>
          </mxGeometry>
        </mxCell>
      </root>
    </mxGraphModel>
  </diagram>
</mxfile>
